<?xml version="1.0" encoding="UTF-8" standalone="no"?>
<!-- Created with Inkscape (http://www.inkscape.org/) -->

<svg
   xmlns:dc="http://purl.org/dc/elements/1.1/"
   xmlns:cc="http://creativecommons.org/ns#"
   xmlns:rdf="http://www.w3.org/1999/02/22-rdf-syntax-ns#"
   xmlns:svg="http://www.w3.org/2000/svg"
   xmlns="http://www.w3.org/2000/svg"
   xmlns:sodipodi="http://sodipodi.sourceforge.net/DTD/sodipodi-0.dtd"
   xmlns:inkscape="http://www.inkscape.org/namespaces/inkscape"
   id="svg2"
   version="1.1"
   inkscape:version="0.48.4 r9939"
   width="128"
   height="128"
   sodipodi:docname="Visualpharm-Icons8-Metro-Style-Accounting-Purchase-order.ico"
   inkscape:export-filename="/home/tog/documents/WORK/KASP/wp-content/plugins/form-storage/img/icon.png"
   inkscape:export-xdpi="3.4300001"
   inkscape:export-ydpi="3.4300001">
  <metadata
     id="metadata8">
    <rdf:RDF>
      <cc:Work
         rdf:about="">
        <dc:format>image/svg+xml</dc:format>
        <dc:type
           rdf:resource="http://purl.org/dc/dcmitype/StillImage" />
        <dc:title></dc:title>
      </cc:Work>
    </rdf:RDF>
  </metadata>
  <defs
     id="defs6" />
  <sodipodi:namedview
     pagecolor="#ffffff"
     bordercolor="#666666"
     borderopacity="1"
     objecttolerance="10"
     gridtolerance="10"
     guidetolerance="10"
     inkscape:pageopacity="0"
     inkscape:pageshadow="2"
     inkscape:window-width="1366"
     inkscape:window-height="718"
     id="namedview4"
     showgrid="false"
     inkscape:zoom="0.4609375"
     inkscape:cx="-517.59412"
     inkscape:cy="154.63981"
     inkscape:window-x="-2"
     inkscape:window-y="27"
     inkscape:window-maximized="1"
     inkscape:current-layer="svg2" />
  <path
     style="fill:#999999;fill-opacity:1"
     d="m -210.08531,2.0043818 c 0.9625,-0.25152 2.5375,-0.25152 3.5,0 0.9625,0.25153 0.175,0.45733 -1.75,0.45733 -1.925,0 -2.7125,-0.2058 -1.75,-0.45733 z"
     id="path3109" />
  <path
     style="fill:#999999;fill-opacity:1"
     d="m -621.33531,-30.306288 0,-224.000002 240,0 240,0 0,140.05668 0,140.056682 -4.25,-2.64165 c -3.88101,-2.41231 -18.30158,-9.49851 -25,-12.2849 l -2.75,-1.1439305 0,-84.0214395 0,-84.021442 -208,0 -208,0 0,160.0000018 0,159.9999982 112.40965,0 112.40965,0 1.17409,7.25 c 0.99566,6.14819 2.1484,10.85018 5.63866,23 0.47698,1.66037 -6.26135,1.75 -131.56466,1.75 l -132.06739,0 z"
     id="path3117" />
  <path
     style="fill:#999999;fill-opacity:1"
     d="m -557.33531,-110.30629 0,-16 48,0 48,0 0,16 0,16.000004 -48,0 -48,0 z"
     id="path3052" />
  <path
     style="font-size:medium;font-style:normal;font-variant:normal;font-weight:normal;font-stretch:normal;text-indent:0;text-align:start;text-decoration:none;line-height:normal;letter-spacing:normal;word-spacing:normal;text-transform:none;direction:ltr;block-progression:tb;writing-mode:lr-tb;text-anchor:start;baseline-shift:baseline;color:#000000;fill:#999999;fill-opacity:1;stroke:none;stroke-width:25;marker:none;visibility:visible;display:inline;overflow:visible;enable-background:accumulate;font-family:Sans;-inkscape-font-specification:Sans"
     d="M -556.75 66.65625 L -556.75 79.15625 L -556.75 135.15625 L -556.75 147.65625 L -544.25 147.65625 L -365.75 147.65625 C -365.85488 139.41692 -365.2484 131.05396 -363.875 122.65625 L -531.75 122.65625 L -531.75 91.65625 L -355.25 91.65625 C -353.53105 87.560501 -351.51601 83.299884 -349.03125 78.5 C -346.92501 74.431309 -344.62775 70.486366 -342.125 66.65625 L -544.25 66.65625 L -556.75 66.65625 z "
     id="path3105-4" />
  <path
     style="font-size:medium;font-style:normal;font-variant:normal;font-weight:normal;font-stretch:normal;text-indent:0;text-align:start;text-decoration:none;line-height:normal;letter-spacing:normal;word-spacing:normal;text-transform:none;direction:ltr;block-progression:tb;writing-mode:lr-tb;text-anchor:start;baseline-shift:baseline;color:#000000;fill:#999999;fill-opacity:1;stroke:none;stroke-width:25;marker:none;visibility:visible;display:inline;overflow:visible;enable-background:accumulate;font-family:Sans;-inkscape-font-specification:Sans"
     d="M -436.75 -27.34375 L -436.75 -14.84375 L -436.75 41.15625 L -436.75 53.65625 L -424.25 53.65625 L -332.5 53.65625 C -324.66617 44.248098 -315.60234 35.836434 -305.625 28.65625 L -411.75 28.65625 L -411.75 -2.34375 L -230.75 -2.34375 L -230.75 1.59375 C -222.36945 1.0607072 -214.02306 1.2934759 -205.75 2.21875 L -205.75 -14.84375 L -205.75 -27.34375 L -218.25 -27.34375 L -424.25 -27.34375 L -436.75 -27.34375 z "
     id="path3105-4-7-5" />
  <path
     style="fill:none;stroke:#999999;stroke-width:25;stroke-miterlimit:4;stroke-opacity:1;stroke-dasharray:none;fill-opacity:1"
     d="m -238.33531,256.23538 c -63.40455,-10.45267 -105.35414,-70.8044 -92.47531,-133.04167 2.32667,-11.24365 4.95618,-18.54169 10.62898,-29.499998 15.07278,-29.11654 43.79521,-50.73946 76.34633,-57.47531 40.46776,-8.37404 83.15009,6.87964 109.17347,39.01607 24.24627,29.941878 31.4768,70.393238 19.11856,106.959238 -10.42901,30.85771 -38.43432,58.86302 -69.29203,69.29203 -15.93514,5.38562 -37.84398,7.33065 -53.5,4.74964 z"
     id="path3121"
     inkscape:connector-curvature="0" />
  <path
     style="fill:#999999;fill-opacity:1"
     d="m -160.5801,101.94853 -15.23715,-15.260968 -30.51406,30.502148 -30.51405,30.50215 -15.24498,-15.24498 -15.24497,-15.24497 -15.24488,15.24487 -15.24487,15.24488 30.48978,30.50208 30.48979,30.50209 45.75127,-45.74316 45.75126,-45.74316 z"
     id="path3119"
     inkscape:connector-curvature="0" />
  <path
     style="fill:none;stroke:#999999;stroke-width:25;stroke-miterlimit:4;stroke-opacity:1;stroke-dasharray:none;fill-opacity:1"
     d="m -424.25051,-114.84866 206,0 0,56 -206,0 z"
     id="path3105-4-7"
     inkscape:connector-curvature="0"
     sodipodi:nodetypes="ccccc" />
  <path
     inkscape:connector-curvature="0"
     style="fill:#999999;fill-opacity:1"
     d="m -557.33531,-12.30629 0,-16 48,0 48,0 0,16 0,16.000004 -48,0 -48,0 z"
     id="path3052-1-5" />
</svg>
